<?xml version="1.0" encoding="UTF-8"?>
<svg id="Layer_1" data-name="Layer 1" xmlns="http://www.w3.org/2000/svg" viewBox="0 0 262.1 75.77">
  <defs>
    <style>
      .cls-1 {
        fill: #1c1b1f;
        stroke-width: 0px;
      }
    </style>
  </defs>
  <path class="cls-1" d="M17.46,44.46c-3.29,0-6.25-.6-8.88-1.81-2.63-1.22-4.72-3.01-6.27-5.38-1.54-2.38-2.31-5.25-2.31-8.63,0-2.36.41-4.91,1.23-7.65,1.8-5.88,4.53-10.11,8.17-12.73,3.65-2.61,7.55-3.92,11.71-3.92,2.23,0,4.21.33,5.94,1,1.72.67,3.31,1.64,4.77,2.9l1.58-1.25c1.05-.82,1.94-1.38,2.67-1.69.72-.32,1.53-.48,2.44-.48.98,0,1.77.22,2.35.65.59.43.9,1.06.9,1.88,0,.43-.08.86-.25,1.29l-3.29,9.19c-.35,1.06-.77,1.8-1.27,2.23-.49.43-1.22.65-2.19.65-1.03,0-1.87-.36-2.52-1.08-.64-.73-1.37-1.98-2.19-3.75-.95-1.83-1.71-3.04-2.29-3.63-.58-.59-1.45-.9-2.58-.9-1.61,0-3.16.99-4.65,2.98-1.49,1.97-2.84,4.94-4.06,8.9-1.02,3.33-1.52,6.12-1.52,8.35,0,1.96.36,3.42,1.1,4.38.75.96,1.75,1.44,3,1.44,1.84,0,3.36-.41,4.56-1.23,1.19-.82,2.42-1.94,3.67-3.35.79-.86,1.43-1.49,1.92-1.9.48-.42,1.01-.63,1.56-.63.71,0,1.45.35,2.23,1.06.79.7,1.17,1.4,1.13,2.1.04.86-.66,2.2-2.08,4-1.43,1.81-3.42,3.43-5.96,4.85-2.53,1.43-5.4,2.15-8.6,2.15Z"/>
  <path class="cls-1" d="M69.33,13c2.19,0,3.94.67,5.25,2,1.32,1.33,1.98,2.98,1.98,4.94,0,.75-.08,1.44-.25,2.06-.39,1.61-1.14,2.85-2.23,3.71-1.1.86-2.41,1.29-3.94,1.29s-2.61-.35-3.38-1.06c-.77-.71-1.45-1.65-2.04-2.81-.31-.67-.6-1.16-.88-1.48-.28-.32-.59-.48-.94-.48-.39,0-.74.16-1.04.48-.29.32-.55.87-.77,1.65l-4.54,14.71c-.07.2-.1.49-.1.88,0,.52.15.94.44,1.27s.69.66,1.21.96c.46.32.76.58.92.77.17.2.23.45.19.75-.07.52-.35.89-.85,1.13-.49.24-1.32.35-2.5.35h-15.04c-1.01,0-1.74-.17-2.19-.5-.46-.33-.63-.77-.52-1.31.16-.47.56-.89,1.23-1.25.6-.3,1.09-.67,1.48-1.1.39-.43.72-1.11,1-2.06l5.23-17c.08-.19.13-.46.13-.81,0-.43-.09-.76-.27-1-.18-.23-.47-.53-.85-.9-.39-.3-.67-.57-.83-.81-.16-.23-.17-.55-.04-.94.23-.9,1.46-1.69,3.69-2.38,2.23-.69,4.57-1.04,7-1.04,1.61,0,2.94.37,4,1.1,1.05.72,1.74,1.75,2.06,3.08,1.88-2.79,4.34-4.19,7.42-4.19Z"/>
  <path class="cls-1" d="M98.24,13c4.51,0,8.11.83,10.81,2.5,2.71,1.67,4.06,4.21,4.06,7.63,0,1.29-.23,2.76-.69,4.4l-2.42,8.13c-.04.16-.06.35-.06.58,0,.63.26.94.77.94.47,0,.88-.2,1.21-.6.33-.42.55-.63.67-.63.19,0,.36.14.5.42.14.27.21.58.21.94.04,1.06-.36,2.14-1.21,3.23-.85,1.1-1.98,2-3.4,2.71-1.41.7-2.95,1.04-4.63,1.04-2.04,0-3.79-.36-5.25-1.1-1.45-.75-2.44-1.84-2.98-3.29-1.18,1.41-2.58,2.49-4.19,3.25-1.6.77-3.32,1.15-5.17,1.15-2.08,0-3.83-.4-5.25-1.19-1.41-.8-2.45-1.84-3.13-3.13-.68-1.28-1.02-2.61-1.02-4.02,0-.63.06-1.23.17-1.83.63-2.69,1.98-4.73,4.08-6.1,2.09-1.38,4.59-2.06,7.5-2.06,3.25,0,6.44.51,9.58,1.52l1.46-3.88c.51-1.64.77-2.91.77-3.81-.04-.94-.35-1.65-.94-2.13-.58-.47-1.49-.71-2.71-.71.23.63.35,1.27.35,1.94,0,1.46-.55,2.72-1.65,3.77-1.1,1.06-2.67,1.58-4.71,1.58-1.92,0-3.42-.42-4.5-1.25-1.07-.84-1.6-1.9-1.6-3.15,0-1.97,1.09-3.6,3.29-4.9,2.19-1.29,5.54-1.94,10.04-1.94ZM94.94,30.81c-1.1,0-1.99.43-2.67,1.27-.68.85-1.02,1.76-1.02,2.73,0,.63.15,1.14.44,1.54.29.39.71.58,1.25.58.51,0,1.07-.21,1.69-.63.61-.42,1.05-1.03,1.31-1.85l1.25-3.46c-.67-.13-1.42-.19-2.25-.19Z"/>
  <path class="cls-1" d="M142.45.67c4.19,0,7.34.64,9.44,1.92,2.09,1.27,3.15,2.82,3.15,4.67,0,1.49-.62,2.64-1.85,3.44-1.22.81-2.83,1.21-4.83,1.21-1.85,0-3.29-.45-4.31-1.35-1.02-.9-1.52-2.02-1.52-3.35,0-.82.26-1.68.77-2.58-1.18,0-2.17.29-2.96.85-.78.56-1.39,1.52-1.81,2.9-.24.86-.35,1.67-.35,2.42,0,.95.17,1.68.5,2.21.33.53.81.79,1.44.79h3.48c2.04,0,3.06.63,3.06,1.88,0,.16-.04.39-.13.71-.24.86-.72,1.51-1.44,1.94-.72.43-1.81.65-3.27.65h-1.75l-5.83,19.06c-.11.46-.17.87-.17,1.23,0,.5.09.91.29,1.21.19.29.46.58.81.85.28.27.47.49.58.67.13.18.15.41.06.67-.2.52-.58.89-1.17,1.13-.58.24-1.49.35-2.71.35h-13.4c-1.03,0-1.77-.17-2.23-.5-.47-.33-.63-.77-.48-1.31.16-.47.56-.89,1.23-1.25.6-.3,1.09-.67,1.48-1.1.39-.43.72-1.11,1-2.06l4.58-15.06c.19-.58.29-1.19.29-1.81,0-.78-.17-1.39-.5-1.83-.33-.46-.83-.96-1.5-1.52-.43-.34-.76-.65-.98-.9-.21-.26-.31-.57-.31-.92-.04-.75.22-1.28.79-1.58.57-.32,1.66-.48,3.27-.48h1.46c-.27-.98-.4-1.96-.4-2.94s.17-2.01.52-3.06c.75-2,2.34-3.68,4.79-5.04,2.44-1.38,6.07-2.06,10.9-2.06Z"/>
  <path class="cls-1" d="M171.97,13.77c.75,0,1.32.16,1.73.48.42.31.63.74.63,1.29,0,.16-.04.43-.1.81-.52,1.72-1.7,2.58-3.54,2.58h-3.4l-4.42,14.52c-.2.6-.29,1.21-.29,1.83,0,.7.19,1.18.58,1.46.39.28.94.42,1.65.42.63,0,1.41-.07,2.35-.23.47-.13.88-.19,1.23-.19.28,0,.48.09.63.27.14.18.21.41.21.67.04.79-.54,1.75-1.75,2.88-1.2,1.11-2.81,2.07-4.85,2.88-2.03.79-4.28,1.19-6.75,1.19-2.67,0-4.81-.6-6.42-1.81-1.6-1.22-2.4-2.89-2.4-5,0-.98.15-1.92.46-2.81l3.77-11.65c.19-.67.29-1.19.29-1.58,0-.79-.19-1.46-.56-2-.36-.55-.88-1.13-1.54-1.71-.6-.55-1.02-1.01-1.25-1.38-.24-.38-.29-.82-.17-1.33.15-.51.48-.9,1-1.17.51-.28,1.32-.42,2.42-.42h3.29l3.69-3.71c1.3-1.29,2.49-2.19,3.56-2.69,1.08-.51,2.48-.77,4.21-.77,2.47,0,3.71.94,3.71,2.81,0,.58-.08,1.14-.25,1.65l-.81,2.71h3.1Z"/>
  <path class="cls-1" d="M189.2,13c2.26,0,3.92.43,4.98,1.29,1.07.86,1.6,2.04,1.6,3.54,0,.89-.14,1.75-.42,2.58l-5.42,17.58c-.11.46-.17.87-.17,1.23,0,.5.09.91.29,1.21.19.29.47.58.83.85.26.27.45.49.56.67.13.18.15.41.08.67-.21.52-.6.89-1.19,1.13-.58.24-1.49.35-2.71.35h-13.4c-1.01,0-1.76-.17-2.23-.5-.47-.33-.63-.77-.48-1.31.16-.47.56-.89,1.23-1.25.6-.3,1.09-.67,1.48-1.1.39-.43.72-1.11,1-2.06l5.1-17c.13-.34.19-.64.19-.88,0-.43-.1-.77-.29-1.02-.2-.26-.49-.53-.9-.81-.39-.3-.66-.57-.81-.81-.16-.23-.18-.55-.06-.94.23-.9,1.47-1.69,3.71-2.38,2.23-.69,4.57-1.04,7-1.04ZM193.14,0c1.53,0,2.8.5,3.81,1.5,1.03,1,1.54,2.23,1.54,3.69,0,1.02-.27,2.02-.79,3-.53.97-1.28,1.77-2.25,2.38-.96.61-2.02.92-3.19.92-1.5,0-2.75-.5-3.75-1.5s-1.52-2.24-1.54-3.73c0-.98.25-1.96.75-2.92.51-.96,1.23-1.75,2.17-2.38.94-.64,2.03-.96,3.25-.96Z"/>
  <path class="cls-1" d="M222.01.67c4.19,0,7.34.64,9.44,1.92,2.09,1.27,3.15,2.82,3.15,4.67,0,1.49-.62,2.64-1.85,3.44-1.22.81-2.83,1.21-4.83,1.21-1.85,0-3.29-.45-4.31-1.35-1.02-.9-1.52-2.02-1.52-3.35,0-.82.26-1.68.77-2.58-1.18,0-2.17.29-2.96.85-.78.56-1.39,1.52-1.81,2.9-.24.86-.35,1.67-.35,2.42,0,.95.17,1.68.5,2.21.33.53.81.79,1.44.79h3.48c2.04,0,3.06.63,3.06,1.88,0,.16-.04.39-.13.71-.24.86-.72,1.51-1.44,1.94-.72.43-1.81.65-3.27.65h-1.75l-5.83,19.06c-.11.46-.17.87-.17,1.23,0,.5.09.91.29,1.21.19.29.46.58.81.85.28.27.47.49.58.67.13.18.15.41.06.67-.2.52-.58.89-1.17,1.13-.58.24-1.49.35-2.71.35h-13.4c-1.03,0-1.77-.17-2.23-.5-.47-.33-.63-.77-.48-1.31.16-.47.56-.89,1.23-1.25.6-.3,1.09-.67,1.48-1.1.39-.43.72-1.11,1-2.06l4.58-15.06c.19-.58.29-1.19.29-1.81,0-.78-.17-1.39-.5-1.83-.33-.46-.83-.96-1.5-1.52-.43-.34-.76-.65-.98-.9-.21-.26-.31-.57-.31-.92-.04-.75.22-1.28.79-1.58.57-.32,1.66-.48,3.27-.48h1.46c-.27-.98-.4-1.96-.4-2.94s.17-2.01.52-3.06c.75-2,2.34-3.68,4.79-5.04,2.44-1.38,6.07-2.06,10.9-2.06Z"/>
  <path class="cls-1" d="M256.42,13c1.72,0,3.09.7,4.13,2.1,1.04,1.39,1.56,3.28,1.56,5.67,0,2.07-.37,4.3-1.1,6.69-1.46,4.82-3.79,9.37-6.98,13.65-3.2,4.28-6.86,7.71-11,10.29-4.13,2.58-8.24,3.88-12.35,3.88-2.04,0-3.8-.35-5.27-1.06-1.47-.7-2.59-1.64-3.35-2.81-.76-1.18-1.15-2.44-1.15-3.77,0-.58.1-1.23.29-1.94.36-1.1.95-1.94,1.77-2.52.82-.58,1.8-.88,2.94-.88,1.8,0,3.28.61,4.44,1.83,1.15,1.23,1.89,2.94,2.21,5.1,2.51-.13,4.82-1.21,6.94-3.25-2-.35-3.48-1.02-4.44-2.02s-1.62-2.55-1.98-4.67l-2.35-14.42c-.11-.73-.28-1.25-.5-1.54-.21-.3-.49-.46-.83-.46-.28,0-.6.14-.98.42-.38.28-.64.42-.79.42-.32,0-.48-.33-.48-1,0-.55.09-1.15.29-1.77.71-2.23,2.02-4.13,3.94-5.67,1.93-1.55,4.17-2.33,6.71-2.33s4.36.75,5.56,2.25c1.19,1.49,1.96,3.78,2.31,6.88l1.77,12.94c.11.97.46,1.46,1.06,1.46.71,0,1.53-.63,2.46-1.9.94-1.28,1.86-3.09,2.77-5.46-1.18-1.05-2.08-2.26-2.71-3.63-.63-1.38-.94-2.84-.94-4.42,0-1.22.16-2.32.48-3.29.46-1.57,1.19-2.76,2.19-3.56,1-.8,2.13-1.21,3.4-1.21Z"/>
  <path class="cls-1" d="M81.18,70.17l-.56,3.15h-1l.56-3.19-2-4.92h1.06l1.58,4,2.92-4h1.19l-3.75,4.96Z"/>
  <path class="cls-1" d="M88.91,66.92c.9,0,1.57.27,2,.79.44.53.67,1.18.67,1.96,0,.45-.07.89-.21,1.31-.14.43-.35.84-.63,1.23-.28.38-.66.68-1.15.92-.47.23-1.01.35-1.6.35-.91,0-1.58-.26-2.02-.79-.43-.53-.65-1.18-.65-1.96,0-.44.07-.88.21-1.31.14-.43.34-.83.63-1.21.28-.39.65-.7,1.13-.94.47-.23,1.01-.35,1.63-.35ZM88.12,72.71c.5,0,.93-.15,1.29-.46.38-.32.65-.7.81-1.15.17-.44.25-.92.25-1.42,0-.58-.15-1.06-.44-1.44-.28-.38-.7-.56-1.25-.56-.5,0-.94.16-1.31.48-.36.31-.63.68-.79,1.13-.17.45-.25.92-.25,1.42,0,.58.14,1.06.42,1.44.29.38.71.56,1.27.56Z"/>
  <path class="cls-1" d="M99.61,67.09l-1.1,6.23h-1l.19-1.06-.52.71c-.5.35-1.08.52-1.73.52-.61,0-1.08-.14-1.42-.42-.32-.29-.48-.69-.48-1.19,0-.32.05-.75.15-1.29l.65-3.5h1l-.63,3.44c-.08.49-.13.85-.13,1.08,0,.74.4,1.1,1.21,1.08,1.21-.04,1.98-1,2.31-2.88l.48-2.73h1.02Z"/>
  <path class="cls-1" d="M103.88,65.36l-1.48,2.44h-.96l1.38-2.58h1.08l-.02.15Z"/>
  <path class="cls-1" d="M108.59,66.94c.17,0,.3.03.42.08l-.15.77c-.54-.04-1.02.11-1.42.46-.41.33-.67.84-.79,1.52l-.63,3.54h-1l1.1-6.23h1l-.17.98.71-.83c.3-.19.61-.29.92-.29Z"/>
  <path class="cls-1" d="M115.51,70.5h-4.5c-.02.22-.02.39-.02.5,0,.57.13,1,.38,1.29.26.28.61.42,1.04.42s.79-.13,1.13-.38c.34-.25.59-.59.73-1.02h1.06c-.25.71-.66,1.25-1.23,1.63-.57.36-1.2.54-1.88.54s-1.28-.21-1.71-.65c-.42-.43-.63-1.03-.63-1.79,0-.48.06-.96.19-1.42.14-.46.34-.9.6-1.31.26-.42.63-.75,1.08-1,.47-.26,1-.4,1.58-.4.72,0,1.29.22,1.71.65.43.42.65.97.65,1.67,0,.45-.06.87-.19,1.27ZM113.19,67.69c-.56,0-1.01.2-1.35.58-.33.38-.57.86-.71,1.46h3.52c.01-.21.02-.35.02-.44,0-.51-.14-.91-.4-1.19-.27-.28-.63-.42-1.08-.42Z"/>
  <path class="cls-1" d="M125.54,65.25c.86.07,1.57.41,2.13,1,.55.58.83,1.41.83,2.46,0,.54-.09,1.07-.27,1.58-.18.5-.45.97-.79,1.4-.33.42-.78.77-1.33,1.06-.56.29-1.18.47-1.88.52-.28.03-.63.04-1.04.04h-2.19l1.44-8.1h2.08c.42,0,.76.02,1.02.04ZM124.31,72.44c.69-.09,1.28-.33,1.75-.71.47-.38.8-.82,1-1.33.21-.51.31-1.07.31-1.67,0-.79-.19-1.41-.56-1.85-.36-.46-.84-.72-1.44-.79-.22-.04-.52-.06-.9-.06h-1.19l-1.13,6.48h1.23c.39,0,.69-.02.92-.06Z"/>
  <path class="cls-1" d="M131.46,73.32h-1.02l1.44-8.1h1.02l-1.44,8.1Z"/>
  <path class="cls-1" d="M138.11,70.17l-.56,3.15h-1l.56-3.19-2-4.92h1.06l1.58,4,2.92-4h1.19l-3.75,4.96Z"/>
  <path class="cls-1" d="M150.91,65.25c.55.07.98.27,1.27.6.3.33.46.77.46,1.31,0,.78-.25,1.42-.75,1.92-.49.49-1.09.78-1.81.88-.25.03-.6.04-1.06.04h-1.5l-.58,3.31h-1.02l1.44-8.1h2.52c.46,0,.8.02,1.04.04ZM150.16,69.11c.4-.09.73-.29,1-.58.26-.3.4-.71.4-1.23,0-.67-.29-1.06-.85-1.19-.18-.04-.48-.06-.9-.06h-1.58l-.56,3.1h1.6c.4,0,.7-.01.9-.04Z"/>
  <path class="cls-1" d="M157.4,66.94c.17,0,.3.03.42.08l-.15.77c-.54-.04-1.02.11-1.42.46-.41.33-.67.84-.79,1.52l-.63,3.54h-1l1.1-6.23h1l-.17.98.71-.83c.3-.19.61-.29.92-.29Z"/>
  <path class="cls-1" d="M162.31,66.92c.9,0,1.57.27,2,.79.44.53.67,1.18.67,1.96,0,.45-.07.89-.21,1.31-.14.43-.35.84-.63,1.23-.28.38-.66.68-1.15.92-.47.23-1.01.35-1.6.35-.91,0-1.58-.26-2.02-.79-.43-.53-.65-1.18-.65-1.96,0-.44.07-.88.21-1.31.14-.43.34-.83.63-1.21.28-.39.65-.7,1.13-.94.47-.23,1.01-.35,1.63-.35ZM161.52,72.71c.5,0,.93-.15,1.29-.46.38-.32.65-.7.81-1.15.17-.44.25-.92.25-1.42,0-.58-.15-1.06-.44-1.44-.28-.38-.7-.56-1.25-.56-.5,0-.94.16-1.31.48-.36.31-.63.68-.79,1.13-.17.45-.25.92-.25,1.42,0,.58.14,1.06.42,1.44.29.38.71.56,1.27.56Z"/>
  <path class="cls-1" d="M168.48,65.05c.17,0,.3.06.4.17.11.1.17.22.17.38,0,.21-.08.39-.23.54-.16.14-.33.21-.54.21-.17,0-.3-.05-.4-.15-.1-.11-.15-.24-.15-.4,0-.21.07-.38.21-.52.15-.15.33-.23.54-.23ZM168.66,67.09l-1.19,6.77c-.08.39-.14.64-.17.75-.24.78-.79,1.17-1.67,1.17-.22,0-.38-.01-.48-.02l.15-.81c.54.07.89-.1,1.02-.5.04-.13.09-.34.15-.65l1.17-6.71h1.02Z"/>
  <path class="cls-1" d="M175.78,70.5h-4.5c-.02.22-.02.39-.02.5,0,.57.13,1,.38,1.29.26.28.61.42,1.04.42s.79-.13,1.13-.38c.34-.25.59-.59.73-1.02h1.06c-.25.71-.66,1.25-1.23,1.63-.57.36-1.2.54-1.88.54s-1.28-.21-1.71-.65c-.42-.43-.63-1.03-.63-1.79,0-.48.06-.96.19-1.42.14-.46.34-.9.6-1.31.26-.42.63-.75,1.08-1,.47-.26,1-.4,1.58-.4.72,0,1.29.22,1.71.65.43.42.65.97.65,1.67,0,.45-.06.87-.19,1.27ZM173.46,67.69c-.56,0-1.01.2-1.35.58-.33.38-.57.86-.71,1.46h3.52c.01-.21.02-.35.02-.44,0-.51-.14-.91-.4-1.19-.27-.28-.63-.42-1.08-.42Z"/>
  <path class="cls-1" d="M181.13,66.92c.72,0,1.26.2,1.63.6.38.41.56.95.56,1.65h-1.04c-.06-.98-.5-1.48-1.33-1.48-.66,0-1.2.31-1.63.92-.43.61-.65,1.41-.65,2.38,0,.58.13,1.02.38,1.31.25.28.58.42,1,.42.89,0,1.51-.46,1.88-1.38h1.06c-.31.72-.71,1.27-1.21,1.63-.5.35-1.14.52-1.9.52-.68,0-1.24-.21-1.67-.63-.43-.43-.65-1.04-.65-1.83,0-.71.13-1.36.4-1.98.26-.61.67-1.11,1.21-1.52.55-.4,1.21-.6,1.96-.6Z"/>
  <path class="cls-1" d="M186.98,67.92l-.63,3.58c-.06.31-.08.52-.08.65,0,.21.07.35.23.42.17.07.42.07.77,0l-.15.75c-.22.07-.47.1-.75.1-.78,0-1.17-.3-1.17-.92,0-.18.05-.5.15-.96l.65-3.63h-.83l.15-.79h.81l.25-1.44h1.02l-.27,1.44h1.08l-.15.79h-1.08Z"/>
  <path class="cls-1" d="M202.76,65.21l-1.44,8.1h-1l1.27-7.04-3.67,7.04h-1.27l-1.15-7.15-1.25,7.15h-1.02l1.44-8.1h1.67l1.15,7.04,3.6-7.04h1.67Z"/>
  <path class="cls-1" d="M207.45,66.92c.68,0,1.18.14,1.5.42.33.28.5.66.5,1.13,0,.21-.04.52-.1.94l-.4,2.33c-.08.45-.14.97-.17,1.58h-1.02l.04-.9-.44.56c-.33.33-.88.5-1.63.5-.47,0-.88-.14-1.21-.42-.33-.28-.5-.67-.5-1.19,0-.86.4-1.48,1.19-1.88.79-.39,1.82-.53,3.1-.44l.02-.17c.07-.39.1-.67.1-.83,0-.25-.08-.46-.25-.63-.16-.17-.41-.25-.75-.25-.52,0-.91.11-1.17.33-.25.21-.43.54-.52,1h-1.06c.14-.67.45-1.18.94-1.54.48-.38,1.09-.56,1.81-.56ZM206.2,72.71c.4,0,.79-.17,1.17-.5.38-.34.61-.76.71-1.25l.1-.65c-.86-.09-1.58-.02-2.17.23-.58.24-.88.65-.88,1.23,0,.29.09.52.29.69.19.17.45.25.77.25Z"/>
  <path class="cls-1" d="M215.4,66.92c.61,0,1.07.15,1.4.44.33.28.5.67.5,1.17,0,.32-.05.75-.15,1.29l-.65,3.5h-1l.63-3.44c.08-.48.13-.84.13-1.08,0-.73-.41-1.09-1.21-1.06-1.21.03-1.98.98-2.31,2.85l-.48,2.73h-1l1.08-6.23h1.02l-.19,1.06.52-.71c.5-.34,1.07-.52,1.71-.52Z"/>
  <path class="cls-1" d="M222.56,66.92c.68,0,1.18.14,1.5.42.33.28.5.66.5,1.13,0,.21-.04.52-.1.94l-.4,2.33c-.08.45-.14.97-.17,1.58h-1.02l.04-.9-.44.56c-.33.33-.88.5-1.63.5-.47,0-.88-.14-1.21-.42-.33-.28-.5-.67-.5-1.19,0-.86.4-1.48,1.19-1.88.79-.39,1.82-.53,3.1-.44l.02-.17c.07-.39.1-.67.1-.83,0-.25-.08-.46-.25-.63-.16-.17-.41-.25-.75-.25-.52,0-.91.11-1.17.33-.25.21-.43.54-.52,1h-1.06c.14-.67.45-1.18.94-1.54.48-.38,1.09-.56,1.81-.56ZM221.31,72.71c.4,0,.79-.17,1.17-.5.38-.34.61-.76.71-1.25l.1-.65c-.86-.09-1.58-.02-2.17.23-.58.24-.88.65-.88,1.23,0,.29.09.52.29.69.19.17.45.25.77.25Z"/>
  <path class="cls-1" d="M232.92,67.09l-.85,4.71c-.13.72-.2,1.13-.21,1.21-.39,1.84-1.54,2.77-3.46,2.77-.78,0-1.39-.18-1.83-.54-.45-.35-.64-.85-.58-1.5v-.13h1.02v.1c-.03.39.09.7.35.94.26.23.66.35,1.19.35.61,0,1.11-.17,1.5-.5.39-.33.65-.8.77-1.4.01-.09.03-.21.06-.35.04-.15.07-.26.08-.33l.02-.1-.6.67c-.45.33-1.02.5-1.73.5s-1.31-.23-1.71-.71c-.41-.47-.6-1.08-.6-1.83,0-.39.04-.77.13-1.15.09-.39.24-.75.44-1.08.21-.34.45-.65.73-.92.29-.26.64-.47,1.04-.63.42-.17.86-.25,1.35-.25.26,0,.53.05.79.15.28.1.48.22.63.38l.29.63.17-.98h1.02ZM228.94,72.71c.57,0,1.07-.19,1.5-.58.44-.4.74-1.03.9-1.88v.06l.08-.48-.02.08c.11-.63.03-1.15-.23-1.58-.27-.43-.7-.65-1.29-.65-.75,0-1.35.32-1.79.96-.43.64-.65,1.39-.65,2.25,0,.54.13.98.38,1.31s.63.5,1.13.5Z"/>
  <path class="cls-1" d="M240.22,70.5h-4.5c-.02.22-.02.39-.02.5,0,.57.13,1,.38,1.29.26.28.61.42,1.04.42s.79-.13,1.13-.38c.34-.25.59-.59.73-1.02h1.06c-.25.71-.66,1.25-1.23,1.63-.57.36-1.2.54-1.88.54s-1.28-.21-1.71-.65c-.42-.43-.63-1.03-.63-1.79,0-.48.06-.96.19-1.42.14-.46.34-.9.6-1.31.26-.42.63-.75,1.08-1,.47-.26,1-.4,1.58-.4.72,0,1.29.22,1.71.65.43.42.65.97.65,1.67,0,.45-.06.87-.19,1.27ZM237.91,67.69c-.56,0-1.01.2-1.35.58-.33.38-.57.86-.71,1.46h3.52c.01-.21.02-.35.02-.44,0-.51-.14-.91-.4-1.19-.27-.28-.63-.42-1.08-.42Z"/>
  <path class="cls-1" d="M245.62,66.94c.17,0,.3.03.42.08l-.15.77c-.54-.04-1.02.11-1.42.46-.41.33-.67.84-.79,1.52l-.63,3.54h-1l1.1-6.23h1l-.17.98.71-.83c.3-.19.61-.29.92-.29Z"/>
</svg>